Coordinates
version=1
nRows=8
nColumns=36
inDegrees=yes

Units are S.I. units (second, meters, Newtons, ...)
If the header above contains a line with 'inDegrees', this indicates whether rotational values are in degrees (yes) or radians (no).

endheader
time	pelvis_tilt	pelvis_list	pelvis_rotation	pelvis_tx	pelvis_ty	pelvis_tz	hip_flexion_r	hip_adduction_r	hip_rotation_r	knee_angle_r	knee_angle_r_beta	ankle_angle_r	subtalar_angle_r	mtp_angle_r	hip_flexion_l	hip_adduction_l	hip_rotation_l	knee_angle_l	knee_angle_l_beta	ankle_angle_l	subtalar_angle_l	mtp_angle_l	lumbar_extension	lumbar_bending	lumbar_rotation	arm_flex_r	arm_add_r	arm_rot_r	elbow_flex_r	pro_sup_r	arm_flex_l	arm_add_l	arm_rot_l	elbow_flex_l	pro_sup_l
      2.01666670	      6.43842751	     -7.08831672	      6.51233899	      0.61615533	      0.91794544	     -0.17087972	     27.20249007	      0.51381852	     -3.22665985	     13.90949796	      0.24276654	     -2.04414464	     -1.29736053	     -7.49999938	     -3.45100163	     -0.93152247	      2.27996514	     12.04589583	      0.21024054	     10.50460983	      3.62349120	     -7.49999938	     -9.43559336	      7.99391641	     -4.00511380	     33.36335667	      5.73931405	     61.59076496	    129.15698964	     96.04954139	     40.81804715	      3.31696929	     58.44608605	    129.26402038	     69.71023138
      2.03333330	      6.15507204	     -6.86469586	      6.56483203	      0.61135093	      0.91742427	     -0.17276950	     28.33335775	     -0.10849934	     -3.53633544	     14.14718138	      0.24691490	     -1.91034102	     -1.18427502	     -7.49999946	     -2.18425303	     -0.58387990	      1.63767755	     13.74089834	      0.23982392	     10.91309433	      3.31150270	     -7.49999946	     -9.83050090	      7.78456582	     -3.85527258	     33.87131124	      5.78714101	     61.95096727	    128.99249182	     93.82550512	     41.21580325	      3.39598085	     58.84904607	    129.47333239	     68.50186477
      2.05000000	      6.00108595	     -6.75042496	      6.71621706	      0.60761619	      0.91949221	     -0.17550627	     29.14509091	     -0.64903653	     -3.65167764	     14.29923848	      0.24956879	     -1.85942038	     -1.00715152	     -7.49999947	     -1.12486010	     -0.35171821	      1.32290757	     15.19060244	      0.26512603	     11.09911482	      3.35420738	     -7.49999947	    -10.45558736	      7.89215952	     -3.83505668	     34.40447594	      5.78333410	     62.19184149	    128.66955856	     94.18186621	     41.53483187	      3.47718919	     59.15335781	    129.49839652	     68.69391599
      2.06666670	      5.77126595	     -6.65737037	      6.87007852	      0.60826808	      0.92101382	     -0.17562511	     29.94706591	     -1.18347817	     -3.94565183	     14.71750994	      0.25686901	     -1.71725781	     -0.63946054	     -7.49999948	     -0.11295595	     -0.24663036	      0.91326167	     16.58532140	      0.28946847	     11.22610208	      3.47270345	     -7.49999948	    -10.99579481	      7.95185521	     -3.73910431	     34.70609819	      5.74107825	     62.51453109	    128.47360479	     94.52785035	     41.58512817	      3.52004856	     59.64881841	    129.66050955	     68.89392047
      2.08333330	      5.39977532	     -6.69820395	      6.90673330	      0.60505629	      0.92358319	     -0.17799621	     30.84183442	     -1.66460124	     -4.24816913	     15.42191745	      0.26916324	     -2.09118912	     -0.27048426	     -7.49999949	      1.06643625	     -0.22993768	      0.48239566	     17.66863400	      0.30837584	     11.09515467	      4.05710091	     -7.49999949	    -11.49762304	      8.25225673	     -3.69124791	     34.91133424	      5.64409531	     63.10091727	    128.41107643	     94.99458567	     41.49498626	      3.50160125	     60.18275173	    129.87249156	     69.18264472
      2.10000000	      5.31673500	     -6.75571238	      7.00846125	      0.60146131	      0.91997066	     -0.17508573	     31.38352907	     -1.96169110	     -4.28217372	     15.65843041	      0.27329117	     -2.34071812	      0.37576620	     -7.49999950	      2.06307507	     -0.41374121	      0.08737533	     18.90299034	      0.32991942	     11.31258957	      4.52555787	     -7.49999950	    -12.46772499	      8.40752506	     -3.56323008	     35.36481604	      5.56659842	     63.26394935	    128.22024694	     95.17667377	     41.90811406	      3.61967103	     60.68099803	    129.96116834	     69.34081811
      2.11666670	      5.06049534	     -6.59427075	      7.24149275	      0.60232859	      0.92082608	     -0.17492471	     31.89957065	     -2.44936069	     -4.39817629	     15.43509768	      0.26939327	     -2.41372452	      0.69542283	     -7.49999950	      2.86627973	     -0.31955952	     -0.18247681	     19.66494969	      0.34321812	     11.54964852	      5.43560423	     -7.49999950	    -13.11994393	      8.31269484	     -3.60003516	     35.34686171	      5.53094743	     63.49569393	    128.01208583	     95.44920441	     41.99738409	      3.53120246	     61.44451173	    130.20828934	     69.60070950
      2.13333330	      4.86169692	     -6.79238957	      7.12237168	      0.59796513	      0.91525199	     -0.17708396	     32.85164243	     -2.62036168	     -4.77528799	     15.61237500	      0.27248735	     -2.62263558	      1.13603677	     -7.49999959	      3.73676547	     -0.54862480	     -0.65611039	     20.49447733	      0.35769611	     12.04307954	      5.80074142	     -7.49999959	    -13.98126916	      8.57738781	     -3.50359379	     35.73900457	      5.66380980	     63.75362438	    127.87692946	     96.91553698	     42.18198059	      3.56198172	     61.73864868	    130.48377388	     71.36487538
